# xmcd
#
# Track frame offsets: 
#        150
#        96689
#        198469
#        255415
#
# Disc length: 4235 seconds
#
# Revision: 2
# Processed by: cddbd v1.5.2PL0 Copyright (c) Steve Scherf et al.
# Submitted via: ExactAudioCopyFreeDBPlugin 1.0
#
DISCID=34108904
DTITLE=Norman Granz Jam Session - Swing Time 094 - Jam Sessions 04 - 1
DTITLE=953
DYEAR=1953
DGENRE=Jazz
TTITLE0=Ballad Medley
TTITLE1=Rose Room
TTITLE2=Moten Swing
TTITLE3=Sentimental Journey
EXTD=YEAR: 2006
EXTT0=
EXTT1=
EXTT2=
EXTT3=
PLAYORDER=
